<svg xmlns="http://www.w3.org/2000/svg" viewBox="0 0 85.27 103.43"><defs><style>.cls-1{fill:#fff;}.cls-2,.cls-3,.cls-4,.cls-5,.cls-6,.cls-7,.cls-8,.cls-9{fill:none;stroke:#fff;stroke-miterlimit:10;}.cls-2{stroke-width:2px;}.cls-3{stroke-width:2.08px;}.cls-4{stroke-width:1.84px;}.cls-5{stroke-width:0.9px;}.cls-6{stroke-width:0.43px;}.cls-7{stroke-width:0.49px;}.cls-8{stroke-width:1.81px;}.cls-9{stroke-width:0.88px;}</style></defs><g id="Layer_2" data-name="Layer 2"><g id="Layer_1-2" data-name="Layer 1"><rect class="cls-1" x="11.95" y="81.26" width="20.15" height="1.43" rx="0.34" transform="translate(-59.95 104) rotate(-90)"/><rect class="cls-1" x="19.95" y="82.67" width="43.12" height="0.98" rx="0.41"/><path class="cls-1" d="M56.25,72.79l-7.49,19a.34.34,0,0,1-.43.2l-.62-.25a.33.33,0,0,1-.18-.44L55,72.3a.33.33,0,0,1,.43-.19l.62.25A.32.32,0,0,1,56.25,72.79Z"/><rect class="cls-1" x="22.62" y="80.88" width="20.15" height="2.19" rx="0.57" transform="translate(-49.28 114.66) rotate(-90)"/><path class="cls-1" d="M56.91,72,64.6,91.36a.56.56,0,0,1-.27.75l-.85.34a.56.56,0,0,1-.72-.35l-7.7-19.31a.59.59,0,0,1,.28-.76l.85-.34A.58.58,0,0,1,56.91,72Z"/><rect class="cls-1" x="19.91" y="82.84" width="20.62" height="1.5" rx="0.48" transform="translate(60.45 167.18) rotate(180)"/><path class="cls-2" d="M41,83c-.9,2-1.8,3.91-2.71,5.87l-.75,1.43"/><path class="cls-3" d="M38.22,89.76a6.1,6.1,0,0,1,7.39,6.62,6.69,6.69,0,0,1-5.81,6,6.81,6.81,0,0,1-5.34-1.89,6.6,6.6,0,0,1-1.75-5"/><path class="cls-4" d="M25,45.59l17.54,32.5L60,45.74"/><path class="cls-1" d="M50.68,28.05a3.17,3.17,0,0,0,4.86-.11c1.66-1.86,1.75-5,1.75-5.33Zm4.38-.86a2,2,0,0,1-3,.06L56.14,24A5.32,5.32,0,0,1,55.06,27.19Z"/><path class="cls-1" d="M37.87,64.25c.68-.19,1.23-.31,1.63-.38a9.06,9.06,0,0,0,1.34-.28,3.88,3.88,0,0,1,1.9-.47,3.53,3.53,0,0,1,1.49.55,5.84,5.84,0,0,0,1.15.34c.43.1,1,.25,1.82.49a4.87,4.87,0,0,1-.91,2.75,1.87,1.87,0,0,1-.3.26c-.39.26-.74.2-1.7.75-1.19.68-1.14,1.06-1.73,1.13s-.65-.22-2.44-1.32a9,9,0,0,1-1.37-.88,1.08,1.08,0,0,1-.17-.19A4.71,4.71,0,0,1,37.87,64.25Z"/><path class="cls-5" d="M34.12,54.8a2.63,2.63,0,0,0-.17,1,3.21,3.21,0,0,0,.61,1.69,14.3,14.3,0,0,0,2.21,2.66c-.11-.43-.26-1-.38-1.8a5.26,5.26,0,0,1-.13-1.71,3.48,3.48,0,0,1,.87-1.79Z"/><path class="cls-6" d="M38.18,64.74a2.79,2.79,0,0,1,0-.72,1.92,1.92,0,0,1,.22-.8,4.4,4.4,0,0,1,1-1.16,2.45,2.45,0,0,0,.27,1.6l0,.06a1,1,0,0,0,.16.19,1.52,1.52,0,0,0,1,.13Z"/><path class="cls-7" d="M46.77,64.75a2.79,2.79,0,0,0,0-.72,2,2,0,0,0-.21-.81,4.25,4.25,0,0,0-.88-1.16,2.7,2.7,0,0,1-.25,1.6l0,.07a.82.82,0,0,1-1.1.31Z"/><path class="cls-1" d="M27.17,23.08c0,.37.08,3.47,1.75,5.32a3.16,3.16,0,0,0,4.86.11Zm2.23,4.56a5.32,5.32,0,0,1-1.08-3.21l4.08,3.28A2,2,0,0,1,29.4,27.64Z"/><path class="cls-1" d="M54.18,54.53h0Z"/><path class="cls-1" d="M73.54,7C72.06,4.73,68,5.05,65.86,5.22a19.62,19.62,0,0,0-9.34,3.31L61,13.21a29.38,29.38,0,0,0-17.4-7,29.74,29.74,0,0,0-20.26,6.88L27.8,8.91c-1.66-1.06-8.15-5-13.32-3.61a4.29,4.29,0,0,0-2.34,1.37c-1.44,1.86-.36,4.76.55,7.64a128.87,128.87,0,0,1,3.25,14.36c.94,5.21.65,6.67,1.06,8.43a13.59,13.59,0,0,0,.67,1.9,18.38,18.38,0,0,0,3.41,5.11l.28.3c1.29,1.32,3.94,4.05,9.5,9.82A10.39,10.39,0,0,1,28,49.12a11,11,0,0,1,.47-5.86c1.18-3.6,3.05-4.17,4.23-8a14.75,14.75,0,0,0,.64-3.44,6.71,6.71,0,0,1-5-.83A6.64,6.64,0,0,1,26,28.19a6.76,6.76,0,0,1-.58-2.43l-1.14-2.49c1.57.83,2.81,1.56,3.65,2.07a50.89,50.89,0,0,0,5.45,3.19c.66.31,1.2.54,1.56.68a12.65,12.65,0,0,1-.64,8c-.71,1.51-1.17,1.54-2.17,3.41-.93,1.72-2.8,5.2-1.81,8.91a9.66,9.66,0,0,0,3.53,5.05c1,.06,1.78,0,2.37,0,2.72-.09,3.49-.58,3.78-.79a3.92,3.92,0,0,0,.94-1,7.93,7.93,0,0,0,1-5.51,6.13,6.13,0,0,1-1.62-.28c-.15,0-.29-.1-.43-.15a5.43,5.43,0,0,1-.61-.31c-1.24-.75-1.46-1.7-2.08-2.33-1.32-1.34-3.43-.11-4-1-1-1.51,4.17-6.84,4.28-6.75s-3.73,4.12-2.83,5.34c.49.66,1.69-.4,3.34.34,1.86.84,2.16,3,4.15,3.18a2.18,2.18,0,0,0,.46,0c1.75-.15,2.09-2,3.69-2.86s3,.21,3.55-.53c1-1.34-2.92-5.62-2.79-5.72s5.41,5.75,4.36,7c-.6.74-3.15-.2-4.38,1.27h0a15.35,15.35,0,0,1-1.9,2.23,2.23,2.23,0,0,1-.53.29,6.07,6.07,0,0,1-.67.14,6.45,6.45,0,0,1-1.28.06A8,8,0,0,0,43.69,53a3.78,3.78,0,0,0,.94,1c.62.44,1.36.64,4.13.65.59,0,1.4,0,2.36,0A9.57,9.57,0,0,0,54.27,50c1.18-3.95-.93-7.74-1.81-9.35-1.08-2-1.59-1.94-2.32-3.55a12.39,12.39,0,0,1-.57-7.87A16.69,16.69,0,0,1,51,28.06c2-1.41,3.45-1.82,6.09-3.1.71-.35,1.78-.89,3.06-1.62-.32.81-.65,1.62-1,2.42a11,11,0,0,1-.81,2.42,7.65,7.65,0,0,1-2,2.91c-2,1.57-4.85.82-5.38.67a15.08,15.08,0,0,0,.51,3.32c1,3.8,3.24,4.33,4.72,8.11A10.74,10.74,0,0,1,57,49.27a10.19,10.19,0,0,1-2.83,5.26c.2-.2,9.46-9.81,9.71-10.25l.15-.28a2,2,0,0,0,.13-.28,41.07,41.07,0,0,0,3.26-5,9.32,9.32,0,0,0,.59-1.9,21.06,21.06,0,0,0,.41-4.09,36.92,36.92,0,0,1,.64-4.06,68.94,68.94,0,0,1,1.66-7.1c.69-2.36,1.08-3.31,2.1-6.79.21-.72.42-1.55.62-2.6C74,9.45,74.23,8.06,73.54,7ZM18,37.7c-1.37-3.83-.39-7.32-.2-7.32a21.66,21.66,0,0,0,.91,6.72c1.4,4.19,4.08,6.63,3.91,6.73S19.36,41.51,18,37.7Zm4.66-1.47c0,2-.49,3.58-1.1,3.58s-1.09-1.6-1.09-3.58.49-3.57,1.09-3.57S22.65,34.26,22.65,36.23Zm-1.58-5.85c0-.39.5-.71,1.13-.71s1.13.32,1.13.71-.51.71-1.13.71S21.07,30.77,21.07,30.38ZM20,11q-1.11,0-2.1,0a17.45,17.45,0,0,1,1.42,6.39,17.31,17.31,0,0,1-1.42,7.27,39.25,39.25,0,0,0-.9-8.36,38.71,38.71,0,0,0-2.21-7,9.3,9.3,0,0,1,7.83,1.87C21.84,11.08,21,11,20,11Zm10.18,21.8a5.48,5.48,0,0,0,2.43-.13,13.52,13.52,0,0,1-3.54,7.72,22.66,22.66,0,0,0,2.07-4.08A22,22,0,0,0,32,33.42a4.79,4.79,0,0,1-1.74-.12,5,5,0,0,1-2.5-1.6A5.59,5.59,0,0,0,30.21,32.78Zm-4.94-1.69c.26,0,.47,1.08.47,2.42s-.21,2.42-.47,2.42-.47-1.09-.47-2.42S25,31.09,25.27,31.09ZM25.12,39c.25,0,.45.66.45,1.46s-.2,1.46-.45,1.46-.45-.65-.45-1.46S24.87,39,25.12,39ZM30.7,12.72c-2.09,1.2-4,1.81-4.26,1.35s1.21-1.81,3.29-3,4-1.81,4.26-1.34S32.78,11.52,30.7,12.72Zm9,37.07a.15.15,0,0,1,0,.3.15.15,0,1,1,0-.3ZM38.1,47.54a.14.14,0,0,1,.14.15.14.14,0,0,1-.14.14.14.14,0,0,1-.15-.14A.14.14,0,0,1,38.1,47.54Zm-.39,4.12a.15.15,0,1,1-.15.15A.15.15,0,0,1,37.71,51.66Zm-.42-2.17a.15.15,0,0,1,0,.3.15.15,0,0,1,0-.3Zm-2-1.51a.15.15,0,1,1-.15.15A.15.15,0,0,1,35.29,48Zm-.15,2.21a.15.15,0,1,1-.15.15A.15.15,0,0,1,35.14,50.19ZM35,52.37a.15.15,0,0,1,.15.14.15.15,0,0,1-.3,0A.15.15,0,0,1,35,52.37ZM33.29,47a.15.15,0,1,1-.15.15A.15.15,0,0,1,33.29,47Zm-.15,2.69a.15.15,0,0,1,.15.14.15.15,0,0,1-.3,0A.15.15,0,0,1,33.14,49.68ZM43,13.73c-.43,0-.88-.77-1-1.79s.12-1.86.56-1.89.88.78,1,1.79S43.39,13.71,43,13.73Zm1.26,36.34a.15.15,0,0,1,0-.3.15.15,0,0,1,0,.3Zm1.36,3a.15.15,0,0,1-.15-.14.15.15,0,0,1,.3,0A.15.15,0,0,1,45.58,53.05Zm.29-5a.15.15,0,0,1,0-.3.15.15,0,1,1,0,.3Zm.72,3a.15.15,0,1,1,.15-.15A.15.15,0,0,1,46.59,51Zm2.09-2.81a.15.15,0,0,1,.15.15.15.15,0,0,1-.3,0A.15.15,0,0,1,48.68,48.22Zm-.15,4.69a.15.15,0,0,1,0-.3.15.15,0,1,1,0,.3Zm.3-2.18a.15.15,0,0,1-.15-.14.15.15,0,1,1,.3,0A.15.15,0,0,1,48.83,50.73Zm2.29-.09a.15.15,0,1,1,.15-.15A.15.15,0,0,1,51.12,50.64Zm0-2.71a.15.15,0,1,1,.15-.15A.15.15,0,0,1,51.12,47.93Zm4.36-35.64c-.13.22-1.06-.07-2.07-.66s-1.73-1.24-1.6-1.46,1,.07,2.07.65S55.61,12.06,55.48,12.29Zm-1.33,21a4.89,4.89,0,0,1-1.75.13,22.47,22.47,0,0,0,.87,2.86,21.42,21.42,0,0,0,2.06,4.08,13.69,13.69,0,0,1-3.54-7.72,5.41,5.41,0,0,0,4.85-.95A4.9,4.9,0,0,1,54.15,33.27Zm5,1.34c.41,0,.74.74.74,1.66s-.33,1.66-.74,1.66-.75-.74-.75-1.66S58.7,34.61,59.11,34.61Zm.16,10.78c-.26,0-.47-1-.47-2.12s.21-2.12.47-2.12.47,1,.47,2.12S59.53,45.39,59.27,45.39Zm2.43-2.87c-.59,0-1.06-1.45-1.06-3.25S61.11,36,61.7,36s1.06,1.46,1.06,3.26S62.28,42.52,61.7,42.52Zm5.2-4.82c-1.37,3.81-4.45,6.22-4.62,6.13A24,24,0,0,0,66.2,37.1a21.08,21.08,0,0,0,.9-6.72C67.3,30.38,68.27,33.87,66.9,37.7Zm-3-2.49c0-.52.11-.94.25-.94s.25.42.25.94-.11.94-.25.94S64,35.73,64,35.21Zm3.49-18.93a38.53,38.53,0,0,0-.89,8.36,17.07,17.07,0,0,1,0-13.66c-.67,0-1.37,0-2.11,0-.93,0-1.81.1-2.62.19A9.3,9.3,0,0,1,69.65,9.3,38.71,38.71,0,0,0,67.44,16.28Z"/><path class="cls-8" d="M17.12,28.87,1.54.94l82.17,0L67.76,29.08"/><path class="cls-9" d="M52,50.64a20.71,20.71,0,0,1,8.52,4.16,21.5,21.5,0,0,1,5.24,6.34"/><path class="cls-9" d="M51.89,50.82a21.2,21.2,0,0,1,7,6.52A23.07,23.07,0,0,1,62.24,65"/><path class="cls-9" d="M48.53,50.77a35.17,35.17,0,0,1,14-1.33,42.08,42.08,0,0,1,12.33,3.21"/><path class="cls-9" d="M49.73,52.74a40.31,40.31,0,0,1,13.06-6.82A43.59,43.59,0,0,1,75.51,44"/><path class="cls-9" d="M32.9,49.68a20.76,20.76,0,0,0-8.51,4.16,21.82,21.82,0,0,0-5.25,6.34"/><path class="cls-9" d="M33,49.86a21.35,21.35,0,0,0-7,6.53,23,23,0,0,0-3.34,7.69"/><path class="cls-9" d="M36,47.75a34.93,34.93,0,0,0-14,.9A41.77,41.77,0,0,0,10.3,53.76"/><path class="cls-9" d="M35.57,50.15A40.09,40.09,0,0,0,21.76,45,43.1,43.1,0,0,0,8.9,44.65"/><path class="cls-5" d="M50.66,54.8a2.63,2.63,0,0,1,.17,1,3.21,3.21,0,0,1-.61,1.69A13.92,13.92,0,0,1,48,60.14c.12-.43.26-1,.39-1.8a5.49,5.49,0,0,0,.12-1.71,3.4,3.4,0,0,0-.87-1.79Z"/></g></g></svg>